<svg width="548" height="534" viewBox="0 0 548 534" fill="none" xmlns="http://www.w3.org/2000/svg">
<path d="M23.2878 23.1254H524.712V510.875H23.2878V23.1254Z" fill="#1F0040"/>
<path d="M0.495605 0.333374V533.667H547.504V0.333374H0.495605ZM23.2876 23.1254H524.712V510.875H23.2876V23.1254ZM155.026 302.328L137.02 370.476C136.564 372.299 135.88 372.983 133.601 372.983H100.097C97.8175 372.983 97.3617 372.299 97.8175 369.564L162.547 143.239C163.686 139.137 164.37 135.946 164.826 124.55C164.826 122.954 165.51 122.271 166.649 122.271H214.513C216.108 122.271 216.792 122.727 217.248 124.55L289.726 370.02C290.182 371.843 289.726 372.983 287.903 372.983H250.296C248.473 372.983 247.333 372.299 246.877 370.704L227.96 302.328H155.026ZM219.071 265.405C212.689 240.105 197.191 184.949 191.493 158.282H191.037C186.251 184.949 173.715 230.077 164.37 265.405H219.071ZM341.236 288.652C341.692 319.422 356.279 340.162 390.923 340.162C404.37 340.162 415.994 338.339 428.074 333.097C429.669 332.413 430.809 332.641 430.809 334.692V363.182C430.809 365.462 430.125 366.601 428.53 367.741C416.45 373.667 401.407 376.402 382.718 376.402C322.547 376.402 299.983 331.957 299.983 282.271C299.983 228.482 327.789 184.493 376.792 184.493C426.479 184.493 443.8 226.202 443.8 260.162C443.8 271.103 443.117 279.991 441.977 284.322C441.521 286.145 440.837 286.829 439.014 287.285C434.456 287.969 421.008 288.88 400.951 288.88L341.236 288.652ZM387.504 257.199C399.128 257.199 403.231 257.199 404.37 256.744C404.37 255.148 404.826 254.009 404.826 252.869C404.826 240.561 398.9 217.769 375.196 217.769C353.316 217.769 343.971 236.915 341.692 257.199H387.504Z" fill="#D291FF"/>
</svg>
