<svg width="547" height="534" viewBox="0 0 547 534" fill="none" xmlns="http://www.w3.org/2000/svg">
<path d="M96.8646 0H450.135C503.696 0 547 43.3042 547 96.8646V436.46C547 490.021 503.696 533.325 450.135 533.325H96.8646C43.3042 533.325 0 490.021 0 436.46V96.8646C0 43.3042 43.3042 0 96.8646 0Z" fill="#00005B"/>
<path d="M219.712 319.083H134.927L117.605 372.872C117.149 374.923 115.326 376.29 113.275 376.063H70.4262C67.9191 376.063 67.2354 374.695 67.9191 371.96L141.308 161.593C141.992 159.314 142.676 157.263 143.587 154.528C144.499 149.741 144.955 144.727 144.955 139.713C144.727 138.573 145.639 137.434 146.778 137.206H147.462H205.809C207.404 137.206 208.544 137.89 208.772 139.029L291.961 371.504C292.645 374.011 291.961 375.151 289.682 375.151H242.047C240.452 375.379 238.857 374.239 238.401 372.644L219.712 317.944V319.083ZM148.146 273.728H206.037C204.669 268.942 202.846 263.244 200.795 257.318C198.743 251.164 196.692 244.555 194.641 237.717C192.362 230.652 190.31 223.814 188.031 216.749C185.752 209.683 183.701 203.074 181.877 196.464C180.054 190.083 178.459 184.157 176.863 178.687H176.407C174.356 188.487 171.849 198.288 168.658 208.088C165.24 219.028 161.821 230.424 158.174 241.82C155.211 253.443 151.565 264.155 148.146 273.728V273.728Z" fill="#9999FF"/>
<path d="M426.205 298.571H353.955C354.867 305.636 357.146 312.702 361.02 318.855C365.123 325.009 370.821 329.795 377.658 332.53C386.775 336.405 396.803 338.456 406.832 338.228C414.809 338 422.786 337.317 430.535 335.721C437.6 334.81 444.438 332.986 450.82 330.479C451.959 329.568 452.643 330.023 452.643 332.303V367.174C452.643 368.086 452.415 368.997 452.187 369.909C451.731 370.593 451.275 371.048 450.592 371.504C443.298 374.695 435.777 376.974 427.8 378.342C417.088 380.393 406.376 381.305 395.436 381.077C378.114 381.077 363.527 378.342 351.676 373.1C340.508 368.313 330.707 360.792 322.958 351.448C315.665 342.559 310.423 332.531 307.232 321.591C304.041 310.878 302.446 299.711 302.446 288.315C302.446 276.007 304.269 263.928 308.144 252.076C311.79 240.68 317.488 230.196 325.237 220.851C332.759 211.735 342.103 204.441 352.815 199.199C363.527 193.957 376.291 192.134 390.877 192.134C402.957 191.906 415.037 194.185 426.205 199.199C435.549 203.302 443.754 209.456 450.136 217.433C456.062 225.182 460.848 233.843 463.811 243.415C466.774 252.532 468.141 261.876 468.141 271.221C468.141 276.691 467.913 281.477 467.685 285.808C467.23 290.138 467.002 293.329 466.774 295.38C466.546 296.976 465.178 298.343 463.583 298.343C462.215 298.343 459.708 298.571 456.062 298.799C452.415 299.255 448.085 299.483 442.842 299.483C437.6 299.483 432.13 298.571 426.205 298.571V298.571ZM353.955 265.295H402.045C407.971 265.295 412.302 265.295 415.037 265.067C416.86 264.839 418.683 264.383 420.279 263.244V260.965C420.279 258.002 419.823 255.267 418.911 252.532C414.809 239.768 402.729 231.108 389.282 231.563C376.747 230.88 364.895 237.489 358.969 248.885C356.234 254.127 354.639 259.597 353.955 265.295Z" fill="#9999FF"/>
</svg>
