<svg width="547" height="534" viewBox="0 0 547 534" fill="none" xmlns="http://www.w3.org/2000/svg">
<path d="M524.208 22.7917H22.7915V510.533H524.208V22.7917Z" fill="#2A0034"/>
<path d="M0 0V533.325H547V0H0ZM22.7917 22.7917H524.208V510.533H22.7917V22.7917ZM141.992 124.898C141.992 123.303 142.448 122.163 144.271 122.163C158.858 121.48 180.282 121.024 202.846 121.024C265.979 121.024 293.557 155.667 293.557 200.111C293.557 258.002 251.62 282.845 200.111 282.845C191.45 282.845 188.487 282.389 182.333 282.389V369.909C182.333 371.732 181.65 372.644 179.598 372.644H144.499C142.676 372.644 141.764 371.96 141.764 369.909C141.764 369.909 141.764 124.898 141.992 124.898ZM182.333 245.922C187.575 246.378 191.678 246.378 200.795 246.378C227.461 246.378 252.532 237.033 252.532 200.795C252.532 171.849 234.754 157.263 204.213 157.263C195.097 157.263 186.436 157.718 182.333 157.946V245.922ZM328.2 225.182C328.2 222.447 328.2 215.837 327.06 203.074C327.06 201.25 327.288 200.795 328.884 200.111C342.787 194.413 375.379 184.385 412.301 184.385C414.125 184.385 415.036 184.84 415.036 186.664V219.712C415.036 221.535 414.353 221.991 412.529 221.991C398.17 221.307 377.43 223.13 369.453 226.549V370.137C369.453 371.96 368.769 372.872 366.718 372.872H330.935C329.112 372.872 328.2 372.188 328.2 370.137V225.182Z" fill="#EA77FF"/>
</svg>
