<svg width="547" height="534" viewBox="0 0 547 534" fill="none" xmlns="http://www.w3.org/2000/svg">
<path d="M96.8646 0H450.135C503.696 0 547 43.3042 547 96.8646V436.46C547 490.021 503.696 533.325 450.135 533.325H96.8646C43.3042 533.325 0 490.021 0 436.46V96.8646C0 43.3042 43.3042 0 96.8646 0Z" fill="#00005B"/>
<path d="M129.913 373.783V139.029C129.913 137.434 130.596 136.522 132.192 136.522C136.066 136.522 139.713 136.522 144.955 136.294C150.425 136.066 156.123 136.066 162.277 135.838C168.431 135.611 175.04 135.611 182.106 135.383C189.171 135.155 196.008 135.155 202.846 135.155C221.535 135.155 237.033 137.434 249.797 142.22C261.193 146.095 271.677 152.476 280.338 160.909C287.631 168.203 293.329 177.091 296.976 186.892C300.394 196.464 302.218 206.265 302.218 216.521C302.218 236.122 297.659 252.304 288.543 265.067C279.426 277.831 266.663 287.403 251.848 292.873C236.35 298.571 219.256 300.622 200.567 300.622C195.097 300.622 191.45 300.622 189.171 300.394C186.892 300.166 183.701 300.166 179.371 300.166V373.328C179.598 374.923 178.459 376.291 176.863 376.518H175.952H132.648C130.824 376.518 129.913 375.607 129.913 373.556V373.783ZM179.598 180.738V257.318C182.789 257.546 185.752 257.774 188.487 257.774H200.567C209.456 257.774 218.344 256.406 226.777 253.671C234.071 251.62 240.452 247.29 245.466 241.592C250.253 235.894 252.532 228.145 252.532 218.116C252.76 211.051 250.936 203.986 247.29 197.832C243.415 191.906 237.945 187.348 231.336 184.841C222.903 181.422 213.786 180.054 204.441 180.282C198.516 180.282 193.273 180.282 188.943 180.51C184.385 180.282 181.194 180.51 179.598 180.738V180.738Z" fill="#9999FF"/>
<path d="M335.038 194.185H374.923C377.202 194.185 379.026 195.781 379.709 197.832C380.393 199.655 380.849 201.478 381.077 203.53C381.533 205.809 381.989 208.316 382.216 210.595C382.444 213.102 382.672 215.837 382.672 218.8C389.51 210.823 397.715 204.213 407.059 199.199C417.544 193.273 429.623 190.311 441.703 190.311C443.298 190.083 444.666 191.222 444.894 192.818V193.729V238.173C444.894 239.996 443.754 240.68 441.247 240.68C433.042 240.452 424.609 241.136 416.632 242.959C410.022 244.327 403.641 246.378 397.487 249.113C393.156 251.164 389.054 253.899 385.863 257.546V373.783C385.863 376.063 384.951 376.974 382.9 376.974H338.001C336.177 377.202 334.582 376.063 334.354 374.239V373.328V247.062C334.354 241.592 334.354 235.894 334.126 229.968C333.898 224.042 333.898 218.116 333.67 212.191C333.67 206.948 333.214 201.934 332.759 196.692C332.531 195.553 333.214 194.413 334.354 194.185C334.354 193.957 334.81 193.957 335.038 194.185V194.185Z" fill="#9999FF"/>
</svg>
